<?xml version="1.0" standalone="no"?><!DOCTYPE svg PUBLIC "-//W3C//DTD SVG 1.1//EN" "http://www.w3.org/Graphics/SVG/1.1/DTD/svg11.dtd"><svg t="1605676485967" class="icon" viewBox="0 0 1024 1024" version="1.1" xmlns="http://www.w3.org/2000/svg" p-id="5832" xmlns:xlink="http://www.w3.org/1999/xlink" width="200" height="200"><defs><style type="text/css"></style></defs><path d="M1023.808066 511.82406q0 14.842898-10.844272 25.719159l-146.221736 146.221736q-10.844272 10.844272-25.719159 10.844272t-25.719159-10.844272-10.844272-25.719159l0-73.126863-219.348599 0 0 219.348599 73.126863 0q14.842898 0 25.719159 10.844272t10.844272 25.719159-10.844272 25.719159l-146.221736 146.221736q-10.844272 10.844272-25.719159 10.844272t-25.719159-10.844272l-146.221736-146.221736q-10.844272-10.844272-10.844272-25.719159t10.844272-25.719159 25.719159-10.844272l73.126863 0 0-219.348599-219.348599 0 0 73.126863q0 14.842898-10.844272 25.719159t-25.719159 10.844272-25.719159-10.844272l-146.221736-146.221736q-10.844272-10.844272-10.844272-25.719159t10.844272-25.719159l146.221736-146.221736q10.844272-10.844272 25.719159-10.844272t25.719159 10.844272 10.844272 25.719159l0 73.126863 219.348599 0 0-219.348599-73.126863 0q-14.842898 0-25.719159-10.844272t-10.844272-25.719159 10.844272-25.719159l146.221736-146.221736q10.844272-10.844272 25.719159-10.844272t25.719159 10.844272l146.221736 146.221736q10.844272 10.844272 10.844272 25.719159t-10.844272 25.719159-25.719159 10.844272l-73.126863 0 0 219.348599 219.348599 0 0-73.126863q0-14.842898 10.844272-25.719159t25.719159-10.844272 25.719159 10.844272l146.221736 146.221736q10.844272 10.844272 10.844272 25.719159z" p-id="5833"></path></svg>