<?xml version="1.0" standalone="no"?><!DOCTYPE svg PUBLIC "-//W3C//DTD SVG 1.1//EN" "http://www.w3.org/Graphics/SVG/1.1/DTD/svg11.dtd"><svg t="1605670985863" class="icon" viewBox="0 0 1024 1024" version="1.1" xmlns="http://www.w3.org/2000/svg" p-id="818" xmlns:xlink="http://www.w3.org/1999/xlink" width="200" height="200"><defs><style type="text/css"></style></defs><path d="M617.152 457.152l0 36.576q0 7.424-5.44 12.864t-12.864 5.44l-128 0 0 128q0 7.424-5.44 12.864t-12.864 5.44l-36.576 0q-7.424 0-12.864-5.44t-5.44-12.864l0-128-128 0q-7.424 0-12.864-5.44t-5.44-12.864l0-36.576q0-7.424 5.44-12.864t12.864-5.44l128 0 0-128q0-7.424 5.44-12.864t12.864-5.44l36.576 0q7.424 0 12.864 5.44t5.44 12.864l0 128 128 0q7.424 0 12.864 5.44t5.44 12.864zM690.272 475.424q0-105.728-75.136-180.864t-180.864-75.136-180.864 75.136-75.136 180.864 75.136 180.864 180.864 75.136 180.864-75.136 75.136-180.864zM982.848 950.848q0 30.272-21.44 51.712t-51.712 21.44q-30.848 0-51.424-21.728l-196-195.424q-102.272 70.848-228 70.848-81.728 0-156.288-31.712t-128.576-85.728-85.728-128.576-31.712-156.288 31.712-156.288 85.728-128.576 128.576-85.728 156.288-31.712 156.288 31.712 128.576 85.728 85.728 128.576 31.712 156.288q0 125.728-70.848 228l196 196q21.152 21.152 21.152 51.424z" p-id="819"></path></svg>