<?xml version="1.0" standalone="no"?><!DOCTYPE svg PUBLIC "-//W3C//DTD SVG 1.1//EN" "http://www.w3.org/Graphics/SVG/1.1/DTD/svg11.dtd"><svg t="1605671057099" class="icon" viewBox="0 0 1024 1024" version="1.1" xmlns="http://www.w3.org/2000/svg" p-id="3498" xmlns:xlink="http://www.w3.org/1999/xlink" width="200" height="200"><defs><style type="text/css"></style></defs><path d="M621.714286 457.142857l0 36.571429q0 7.460571-5.412571 12.873143t-12.873143 5.412571l-329.142857 0q-7.460571 0-12.873143-5.412571t-5.412571-12.873143l0-36.571429q0-7.460571 5.412571-12.873143t12.873143-5.412571l329.142857 0q7.460571 0 12.873143 5.412571t5.412571 12.873143zM694.857143 475.428571q0-105.691429-75.117714-180.882286t-180.882286-75.117714-180.882286 75.117714-75.117714 180.882286 75.117714 180.882286 180.882286 75.117714 180.882286-75.117714 75.117714-180.882286zM987.428571 950.857143q0 30.281143-21.430857 51.712t-51.712 21.430857q-30.866286 0-51.419429-21.723429l-196.022857-195.437714q-102.253714 70.875429-227.986286 70.875429-81.700571 0-156.306286-31.744t-128.585143-85.723429-85.723429-128.585143-31.744-156.306286 31.744-156.306286 85.723429-128.585143 128.585143-85.723429 156.306286-31.744 156.306286 31.744 128.585143 85.723429 85.723429 128.585143 31.744 156.306286q0 125.732571-70.875429 227.986286l196.022857 196.022857q21.138286 21.138286 21.138286 51.419429z" p-id="3499"></path></svg>